<svg width="17" height="17" viewBox="0 0 17 17" fill="none" xmlns="http://www.w3.org/2000/svg">
<path d="M5.77234 8.27221L7.439 9.93888L10.7723 6.60555M4.8015 2.18638C5.39926 2.13867 5.96674 1.90363 6.42317 1.51471C7.48858 0.60626 9.05609 0.60626 10.1215 1.51471C10.5779 1.90363 11.1454 2.13867 11.7432 2.18638C13.1388 2.29742 14.2471 3.40573 14.3582 4.80138C14.4059 5.39914 14.6409 5.96661 15.0298 6.42305C15.9383 7.48846 15.9383 9.05597 15.0298 10.1214C14.6409 10.5778 14.4059 11.1453 14.3582 11.743C14.2471 13.1387 13.1388 14.247 11.7432 14.358C11.1454 14.4058 10.5779 14.6408 10.1215 15.0297C9.05609 15.9382 7.48858 15.9382 6.42317 15.0297C5.96674 14.6408 5.39926 14.4058 4.8015 14.358C3.40585 14.247 2.29754 13.1387 2.1865 11.743C2.13879 11.1453 1.90375 10.5778 1.51484 10.1214C0.606382 9.05597 0.606382 7.48846 1.51484 6.42305C1.90375 5.96661 2.13879 5.39914 2.1865 4.80138C2.29754 3.40573 3.40585 2.29742 4.8015 2.18638L5.77234 8.27221" stroke="#08785F" stroke-width="1.66667" stroke-linecap="round" stroke-linejoin="round"/>
</svg>
